<?xml version="1.0" standalone="no"?>
<!DOCTYPE svg PUBLIC "-//W3C//DTD SVG 20010904//EN"
 "http://www.w3.org/TR/2001/REC-SVG-20010904/DTD/svg10.dtd">
<svg version="1.0" xmlns="http://www.w3.org/2000/svg"
 width="178.000000pt" height="189.000000pt" viewBox="0 0 178.000000 189.000000"
 preserveAspectRatio="xMidYMid meet">

<g transform="translate(0.000000,189.000000) scale(0.100000,-0.100000)"
fill="#000000" stroke="none">
<path d="M912 1594 c-87 -23 -92 -32 -15 -27 182 13 336 -98 388 -279 l16 -58
80 0 c43 0 79 1 79 3 0 15 -36 120 -52 152 -90 179 -292 264 -496 209z"/>
<path d="M821 1515 c-118 -33 -260 -136 -332 -242 l-30 -43 70 0 70 0 73 73
c83 83 168 131 264 149 76 14 138 5 210 -31 l56 -29 -34 35 c-80 83 -230 121
-347 88z"/>
<path d="M191 1173 c-16 -13 -37 -69 -75 -198 l-54 -180 56 -3 c35 -2 58 1 63
9 4 7 20 61 35 121 l28 109 52 -98 c70 -132 88 -153 128 -153 43 0 62 22 127
148 l53 103 19 -68 c10 -37 25 -92 33 -120 l15 -53 59 0 c33 0 60 2 60 3 0 12
-102 352 -110 368 -15 26 -58 35 -89 18 -16 -9 -52 -61 -95 -137 l-69 -123
-62 112 c-34 62 -71 123 -83 136 -24 27 -62 30 -91 6z"/>
<path d="M761 1171 c-33 -33 -35 -73 -5 -177 l27 -97 14 44 c7 24 13 52 13 62
0 36 18 14 70 -84 63 -121 79 -139 123 -139 42 0 51 10 118 137 30 57 56 103
59 103 3 0 18 -52 34 -115 l29 -115 62 0 62 0 -53 183 c-55 189 -70 217 -118
217 -36 0 -52 -19 -124 -148 l-70 -122 -66 120 c-37 66 -77 127 -89 135 -29
20 -63 19 -86 -4z"/>
<path d="M1346 1169 c-50 -40 -52 -67 -10 -188 3 -10 14 -1 33 28 l29 43 55
-81 56 -81 -70 0 c-76 0 -80 -5 -58 -69 l11 -31 164 0 c90 0 164 2 164 4 0 12
-236 345 -261 369 -35 33 -76 35 -113 6z"/>
<path d="M385 703 c8 -36 56 -111 92 -145 15 -15 53 -39 83 -55 49 -25 65 -28
150 -27 63 0 108 6 135 17 l40 16 -51 -5 c-65 -8 -153 17 -211 59 -45 32 -99
104 -109 144 -6 21 -12 23 -71 23 l-65 0 7 -27z"/>
<path d="M1145 680 c-78 -106 -219 -204 -339 -236 -116 -31 -243 -10 -337 56
l-34 24 30 -35 c86 -103 213 -156 345 -146 144 11 277 76 395 192 64 63 145
167 145 187 0 5 -38 8 -84 8 l-84 0 -37 -50z"/>
</g>
</svg>
